


<!-- Uploaded to: SVG Repo, www.svgrepo.com, Transformed by: SVG Repo Mixer Tools -->
<svg width="800px" height="800px" viewBox="0 0 24 24" data-name="Layer 1" id="Layer_1" xmlns="http://www.w3.org/2000/svg" fill="#000000">

    <g id="SVGRepo_bgCarrier" stroke-width="0"/>

    <g id="SVGRepo_tracerCarrier" stroke-linecap="round" stroke-linejoin="round"/>

    <g id="SVGRepo_iconCarrier">

    <title/>

        <circle cx="5.5" cy="4.5" r="2.5" style="fill:#ff8ae9"/>

        <polygon points="7 13 3 13 3 11 5 8 7 11 7 13" style="fill:#ffffff"/>

        <polygon points="21 13 17 13 17 11 19 8 21 11 21 13" style="fill:#ffffff"/>

        <rect height="12" style="fill:#ffffff" width="6" x="9" y="8"/>

        <polygon points="20 21 4 21 4 12 7 13 17 13 20 12 20 21" style="fill:#ffffff"/>

        <path d="M14,21H10V18a2,2,0,0,1,2-2h0a2,2,0,0,1,2,2Z" style="fill:#60a3fb"/>

        <path d="M13,13H11V11a1,1,0,0,1,1-1h0a1,1,0,0,1,1,1Z" style="fill:#ff8ae9"/>

        <path d="M8,18H6V16a1,1,0,0,1,1-1H7a1,1,0,0,1,1,1Z" style="fill:#ff8ae9"/>

        <path d="M18,18H16V16a1,1,0,0,1,1-1h0a1,1,0,0,1,1,1Z" style="fill:#ff8ae9"/>

        <polygon points="16 9 8 9 8 7 12 2 16 7 16 9" style="fill:#ffffff"/>

        <polygon points="20 6 18 4 19.5 4 20 3.5 20.5 4 22 4 20 6" style="fill:#ffffff"/>

        <polygon points="4 7 2 5 3.5 5 4 4.5 4.5 5 6 5 4 7" style="fill:#ffffff"/>

    </g>

</svg>